<?xml version="1.0" encoding="iso-8859-1"?>
<!-- Uploaded to: SVG Repo, www.svgrepo.com, Generator: SVG Repo Mixer Tools -->
<svg height="800px" width="800px" version="1.1" id="Capa_1" xmlns="http://www.w3.org/2000/svg" xmlns:xlink="http://www.w3.org/1999/xlink" 
	 viewBox="0 0 195.645 195.645" xml:space="preserve">
<g>
	<path style="fill:#010002;" d="M102.123,90.756c0,6.313-5.136,11.449-11.442,11.449c-6.313,0-11.445-5.136-11.445-11.449
		c0-6.306,5.132-11.438,11.445-11.438C96.987,79.318,102.123,84.45,102.123,90.756z M108.142,88.945v3.615h72.812v-3.615H108.142z
		 M99.406,105.88l48.4,48.393l2.552-2.548l-48.4-48.397L99.406,105.88z M88.87,195.645h3.622v-87.438H88.87V195.645z M74.182,88.945
		H14.691v3.615h59.491V88.945z M92.492,0H88.87v74.905h3.622V0z M79.683,84.364l2.154-2.906L36.204,47.559l-0.676-0.505
		l-2.158,2.906L79,83.867L79.683,84.364z M150.469,31.122l-2.62-2.502L99.288,79.454l2.62,2.502L150.469,31.122z M37.088,151.897
		l2.731,2.373l42.141-48.536l-2.734-2.369L37.088,151.897z M110.264,102.86l55.569,15.557l0.973-3.482l-55.572-15.557
		L110.264,102.86z M43.021,107.655l1.249,3.396l30.474-11.191l-1.249-3.396L43.021,107.655z M108.779,84.4l49.768-17.257
		l-1.188-3.418l-49.76,17.257L108.779,84.4z M83.931,75.585l3.285-1.521L59.248,13.571l-0.354-0.769l-3.285,1.521L83.58,74.819
		L83.931,75.585z"/>
</g>
</svg>